# xmcd
#
# Track frame offsets: 
#        150
#        23316
#        44592
#        65701
#        86269
#        106789
#        123114
#        144639
#        167236
#        184875
#        203738
#
# Disc length: 2951 seconds
#
# Revision: 1
# Processed by: cddbd v1.5.2PL0 Copyright (c) Steve Scherf et al.
# Submitted via: ExactAudioCopy v0.99pb5
#
DISCID=8e0b850b
DTITLE=Mulenze - Para El Mundo Entero
DYEAR=1900
DGENRE=Salsa
TTITLE0=Mulenze Para El Mundo Entero
TTITLE1=Digale
TTITLE2=Maldicion
TTITLE3=El Que Tiene Un Pollo
TTITLE4=Fuiste Tu
TTITLE5=No Sirvio
TTITLE6=Si Supieras
TTITLE7=Olvidarte
TTITLE8=Demuestrame
TTITLE9=Quisiera
TTITLE10=Prendere Una Lucecita
EXTD=
EXTT0=
EXTT1=
EXTT2=
EXTT3=
EXTT4=
EXTT5=
EXTT6=
EXTT7=
EXTT8=
EXTT9=
EXTT10=
PLAYORDER=
